<svg xmlns="http://www.w3.org/2000/svg" viewBox="0 0 94 94"><defs><style>.cls-1{fill:#ef6a0f;}.cls-2{fill:#121216;}</style></defs><title>Asset 5icon</title><g id="Layer_2" data-name="Layer 2"><g id="Layer_1-2" data-name="Layer 1"><circle class="cls-1" cx="47" cy="47" r="39.44"/><path class="cls-2" d="M93.81,42.88A47,47,0,0,0,4.32,27.33,47,47,0,0,0,1.05,56.89,47.25,47.25,0,0,0,47,94a46.62,46.62,0,0,0,18-3.56A47.09,47.09,0,0,0,92.84,57.36,46.47,46.47,0,0,0,94,47C94,45.58,93.94,44.19,93.81,42.88ZM47,84.44A37.58,37.58,0,0,1,10.3,54.5,38.45,38.45,0,0,1,9.56,47a37.44,37.44,0,0,1,74.87-1c0,.31,0,.63,0,1v.11L79.16,50,50.72,25.92l1.84-5-2.49,1.83,3.6-8.5-5.41,5.41,1-9.3-8.33,15,.77,1.53L31.33,49.44l10.84,9.49,6.92-13.86L46.44,57,52,54.22l1.91-10.65L65.19,61.63,61.81,73.15,63,80.84l-.51.25A37,37,0,0,1,47,84.44Z"/></g></g></svg>