<?xml version="1.0" encoding="utf-8"?>
<!-- Generator: Adobe Illustrator 22.1.0, SVG Export Plug-In . SVG Version: 6.00 Build 0)  -->
<svg version="1.1" id="Layer_1" xmlns="http://www.w3.org/2000/svg" xmlns:xlink="http://www.w3.org/1999/xlink" x="0px" y="0px"
	 viewBox="0 0 227 63" style="enable-background:new 0 0 227 63;" xml:space="preserve">
<style type="text/css">
	.st0{fill:#F44B00;}
</style>
<g>
	<path class="st0" d="M22.5,59.2c-2.7,0-5.2-0.5-7.5-1.6s-4.3-2.5-5.9-4.3c-1.6-1.8-2.9-4-3.9-6.5c-0.9-2.5-1.4-5.1-1.4-8
		s0.4-5.5,1.3-7.9c0.9-2.4,2.1-4.6,3.6-6.4c1.5-1.8,3.4-3.3,5.5-4.3c2.1-1,4.5-1.6,7-1.6c2.9,0,5.5,0.7,7.8,2.1
		c2.3,1.4,4.1,3.2,5.4,5.5V3.8h10v43.2c0,1,0.2,1.8,0.5,2.2c0.3,0.4,0.9,0.7,1.8,0.7v8.5c-1.7,0.3-3.2,0.5-4.3,0.5
		c-1.8,0-3.3-0.4-4.4-1.3c-1.2-0.9-1.8-2.1-1.9-3.5l-0.2-2.5c-1.4,2.5-3.4,4.4-5.9,5.7C27.8,58.6,25.2,59.2,22.5,59.2z M25.1,50.7
		c0.9,0,1.9-0.2,2.9-0.5c1-0.3,1.9-0.8,2.8-1.4s1.6-1.3,2.3-2.1c0.7-0.8,1.2-1.7,1.5-2.6v-9.4c-0.4-1.1-1-2.1-1.7-3
		c-0.7-0.9-1.5-1.7-2.5-2.4c-0.9-0.7-1.9-1.2-2.9-1.6c-1-0.4-2-0.6-3-0.6c-1.5,0-2.9,0.3-4.2,1c-1.3,0.7-2.4,1.5-3.3,2.7
		s-1.6,2.4-2.1,3.9c-0.5,1.5-0.7,2.9-0.7,4.5c0,1.6,0.3,3.2,0.8,4.6c0.5,1.4,1.3,2.6,2.2,3.7c0.9,1,2.1,1.9,3.4,2.5
		C22.1,50.4,23.5,50.7,25.1,50.7z"/>
	<path class="st0" d="M79.5,27.9c-3,0-5.8,0.6-8.2,1.8c-2.4,1.1-4.1,2.8-5.2,5.1v23.8h-10V19.2h9.2v8.4c0.7-1.3,1.5-2.6,2.5-3.6
		c0.9-1.1,2-2,3.1-2.8c1.1-0.8,2.2-1.4,3.3-1.8c1.1-0.4,2.2-0.6,3.3-0.6c0.5,0,1,0,1.2,0c0.3,0,0.5,0,0.8,0.1V27.9z"/>
	<path class="st0" d="M96.8,59.2c-1.9,0-3.7-0.3-5.3-0.9c-1.6-0.6-3.1-1.5-4.3-2.6c-1.2-1.1-2.1-2.4-2.8-3.9s-1-3.1-1-4.9
		c0-1.8,0.4-3.6,1.2-5.1c0.8-1.6,2-2.9,3.4-4c1.5-1.1,3.2-2,5.3-2.6c2-0.6,4.3-0.9,6.7-0.9c1.7,0,3.5,0.1,5.1,0.4s3.2,0.7,4.5,1.3
		v-2.2c0-2.6-0.7-4.6-2.2-6c-1.5-1.4-3.7-2.1-6.6-2.1c-2.1,0-4.1,0.4-6.1,1.1c-2,0.8-4,1.8-6.1,3.3l-3.1-6.4c5-3.3,10.5-5,16.3-5
		c5.6,0,10,1.4,13.2,4.2c3.1,2.8,4.7,6.8,4.7,12v12.2c0,1,0.2,1.8,0.6,2.2c0.4,0.4,1,0.7,1.8,0.7v8.5c-1.7,0.3-3.2,0.5-4.4,0.5
		c-1.9,0-3.4-0.4-4.4-1.3c-1-0.8-1.7-2-1.9-3.4l-0.2-2.2c-1.7,2.3-3.9,4-6.4,5.2C102.3,58.6,99.6,59.2,96.8,59.2z M99.6,51.9
		c1.7,0,3.3-0.3,4.8-0.9c1.5-0.6,2.7-1.4,3.6-2.4c1.1-0.8,1.6-1.8,1.6-2.8v-4.5c-1.2-0.5-2.5-0.8-3.9-1.1c-1.4-0.3-2.7-0.4-4-0.4
		c-2.6,0-4.7,0.6-6.4,1.8c-1.6,1.2-2.5,2.7-2.5,4.5c0,1.7,0.6,3.1,1.9,4.2C96.1,51.3,97.7,51.9,99.6,51.9z"/>
	<path class="st0" d="M128.1,38.8c0-2.7,0.5-5.3,1.4-7.8c0.9-2.4,2.3-4.6,4.1-6.4c1.8-1.8,4-3.3,6.5-4.4c2.5-1.1,5.4-1.6,8.6-1.6
		c4.3,0,8,0.9,11,2.8c3,1.8,5.3,4.3,6.8,7.3l-9.8,3c-0.8-1.4-2-2.6-3.4-3.3c-1.4-0.8-2.9-1.2-4.6-1.2c-1.5,0-2.8,0.3-4,0.9
		c-1.2,0.6-2.3,1.4-3.3,2.4c-0.9,1-1.6,2.3-2.2,3.7c-0.5,1.4-0.8,3-0.8,4.8c0,1.8,0.3,3.3,0.8,4.8c0.5,1.5,1.3,2.7,2.2,3.7
		c0.9,1,2,1.9,3.3,2.4c1.2,0.6,2.6,0.9,4,0.9c1.8,0,3.5-0.5,5-1.3c1.5-0.9,2.6-2,3.2-3.3l9.8,3c-1.3,3-3.6,5.4-6.7,7.3
		c-3.1,1.9-6.8,2.8-11.2,2.8c-3.2,0-6.1-0.5-8.6-1.6c-2.5-1.1-4.7-2.6-6.5-4.5c-1.8-1.9-3.2-4-4.2-6.5
		C128.6,44.1,128.1,41.5,128.1,38.8z"/>
	<path class="st0" d="M192.1,59.2c-3.2,0-6.1-0.5-8.6-1.6c-2.5-1.1-4.7-2.6-6.5-4.5c-1.8-1.9-3.1-4-4.1-6.5c-1-2.4-1.4-5-1.4-7.7
		c0-2.7,0.5-5.3,1.4-7.8c0.9-2.4,2.3-4.6,4.1-6.5c1.8-1.9,3.9-3.4,6.5-4.5c2.5-1.1,5.4-1.6,8.6-1.6c3.2,0,6.1,0.5,8.6,1.6
		c2.5,1.1,4.7,2.6,6.4,4.5c1.8,1.9,3.1,4,4.1,6.5c0.9,2.4,1.4,5,1.4,7.8c0,2.7-0.5,5.3-1.4,7.7c-0.9,2.4-2.3,4.6-4,6.5
		c-1.8,1.9-3.9,3.4-6.4,4.5C198.2,58.7,195.3,59.2,192.1,59.2z M181.8,38.9c0,1.7,0.3,3.3,0.8,4.8s1.2,2.7,2.2,3.7
		c0.9,1,2,1.9,3.3,2.4c1.2,0.6,2.6,0.9,4,0.9c1.4,0,2.8-0.3,4-0.9c1.2-0.6,2.3-1.4,3.3-2.4c0.9-1,1.6-2.3,2.2-3.7
		c0.5-1.4,0.8-3,0.8-4.8c0-1.7-0.3-3.3-0.8-4.7c-0.5-1.4-1.3-2.7-2.2-3.7c-0.9-1-2-1.9-3.3-2.4c-1.2-0.6-2.6-0.9-4-0.9
		c-1.5,0-2.8,0.3-4,0.9c-1.2,0.6-2.3,1.4-3.3,2.5c-0.9,1-1.6,2.3-2.2,3.7S181.8,37.2,181.8,38.9z"/>
</g>
<g>
	<path class="st0" d="M218.9,23.6c-0.6,0-1.1-0.1-1.6-0.3c-0.5-0.2-0.9-0.5-1.3-0.8c-0.4-0.4-0.6-0.8-0.8-1.3s-0.3-1-0.3-1.6
		c0-0.6,0.1-1.1,0.3-1.6s0.5-0.9,0.8-1.3c0.4-0.4,0.8-0.6,1.3-0.8c0.5-0.2,1-0.3,1.6-0.3c0.6,0,1.1,0.1,1.6,0.3
		c0.5,0.2,0.9,0.5,1.3,0.8c0.4,0.4,0.6,0.8,0.8,1.3s0.3,1,0.3,1.6c0,0.6-0.1,1.1-0.3,1.6s-0.5,0.9-0.8,1.3s-0.8,0.6-1.3,0.8
		C220,23.5,219.5,23.6,218.9,23.6z M218.9,23.4c0.5,0,1-0.1,1.5-0.3c0.5-0.2,0.9-0.4,1.2-0.8c0.3-0.3,0.6-0.7,0.8-1.2
		c0.2-0.5,0.3-1,0.3-1.5c0-0.5-0.1-1.1-0.3-1.5c-0.2-0.5-0.5-0.9-0.8-1.2c-0.3-0.3-0.7-0.6-1.2-0.8c-0.5-0.2-1-0.3-1.5-0.3
		c-0.5,0-1.1,0.1-1.5,0.3c-0.5,0.2-0.9,0.5-1.2,0.8c-0.3,0.3-0.6,0.7-0.8,1.2c-0.2,0.5-0.3,1-0.3,1.5c0,0.5,0.1,1,0.3,1.5
		c0.2,0.5,0.5,0.9,0.8,1.2c0.3,0.3,0.7,0.6,1.2,0.8S218.4,23.4,218.9,23.4z M219,22.1c-0.3,0-0.6-0.1-0.9-0.2
		c-0.3-0.1-0.6-0.3-0.8-0.5c-0.2-0.2-0.4-0.5-0.6-0.8s-0.2-0.7-0.2-1.1c0-0.3,0-0.6,0.1-0.9c0.1-0.3,0.2-0.6,0.4-0.8
		c0.2-0.2,0.4-0.5,0.7-0.6c0.3-0.2,0.6-0.2,1.1-0.2c0.4,0,0.8,0.1,1.1,0.3s0.6,0.5,0.7,0.8l-0.2,0.1c-0.1-0.2-0.2-0.4-0.3-0.5
		c-0.1-0.1-0.3-0.2-0.4-0.3c-0.2-0.1-0.3-0.1-0.5-0.1c-0.2,0-0.3,0-0.4,0c-0.4,0-0.7,0.1-1,0.2c-0.3,0.1-0.5,0.3-0.7,0.6
		c-0.2,0.2-0.3,0.5-0.4,0.8c-0.1,0.3-0.1,0.6-0.1,0.8c0,0.4,0.1,0.7,0.2,1c0.1,0.3,0.3,0.5,0.5,0.7c0.2,0.2,0.4,0.3,0.7,0.5
		c0.3,0.1,0.5,0.2,0.7,0.2c0.2,0,0.3,0,0.5-0.1s0.3-0.1,0.5-0.2c0.2-0.1,0.3-0.2,0.4-0.3c0.1-0.1,0.2-0.3,0.3-0.4l0.2,0.1
		c0,0.1-0.1,0.2-0.2,0.4c-0.1,0.1-0.2,0.3-0.4,0.4s-0.4,0.2-0.6,0.3C219.5,22.1,219.2,22.1,219,22.1z"/>
</g>
</svg>
